<mxfile host="app.diagrams.net" modified="2024-06-28T06:08:11.743Z" agent="Mozilla/5.0 (Windows NT 10.0; Win64; x64) AppleWebKit/537.36 (KHTML, like Gecko) Chrome/126.0.0.0 Safari/537.36" version="24.6.4" etag="XbW1sRuZCtJElQkMPpE-" type="github">
  <diagram name="Page-1" id="Ymk2eCNHHWw34PEyWfsD">
    <mxGraphModel>
      <root>
        <mxCell id="0" />
        <mxCell id="1" parent="0" />
      </root>
    </mxGraphModel>
  </diagram>
</mxfile>
